<svg width="48" height="48" viewBox="0 0 48 48" fill="none" xmlns="http://www.w3.org/2000/svg">
<circle cx="23.8385" cy="23.8385" r="23.8385" fill="black"/>
<path d="M12.4988 30.0952C11.84 30.5974 11.7131 31.5387 12.2153 32.1975C12.7176 32.8563 13.6588 32.9832 14.3176 32.481L12.4988 30.0952ZM34.438 16.5899C34.5487 15.7689 33.9729 15.0136 33.1519 14.9028L19.773 13.0987C18.952 12.988 18.1967 13.5638 18.086 14.3848C17.9753 15.2058 18.5511 15.9611 19.372 16.0718L31.2644 17.6755L29.6607 29.5678C29.55 30.3888 30.1258 31.1441 30.9468 31.2548C31.7678 31.3656 32.5231 30.7898 32.6338 29.9688L34.438 16.5899ZM13.4082 31.2881L14.3176 32.481L33.8608 17.5823L32.9514 16.3894L32.042 15.1965L12.4988 30.0952L13.4082 31.2881Z" fill="white"/>
</svg>
