<svg width="20" height="20" viewBox="0 0 20 20" fill="none" xmlns="http://www.w3.org/2000/svg">
<g id="lucide/briefcase-business">
<path id="Vector" d="M10.0013 10.0003H10.0096M13.3346 5.00033V3.33366C13.3346 2.89163 13.159 2.46771 12.8465 2.15515C12.5339 1.84259 12.11 1.66699 11.668 1.66699H8.33464C7.89261 1.66699 7.46868 1.84259 7.15612 2.15515C6.84356 2.46771 6.66797 2.89163 6.66797 3.33366V5.00033M18.3346 10.8337C15.862 12.4661 12.9643 13.3364 10.0013 13.3364C7.03834 13.3364 4.14064 12.4661 1.66797 10.8337M3.33464 5.00033H16.668C17.5884 5.00033 18.3346 5.74652 18.3346 6.66699V15.0003C18.3346 15.9208 17.5884 16.667 16.668 16.667H3.33464C2.41416 16.667 1.66797 15.9208 1.66797 15.0003V6.66699C1.66797 5.74652 2.41416 5.00033 3.33464 5.00033Z" stroke="url(#paint0_linear_59_68)" stroke-width="1.5" stroke-linecap="round" stroke-linejoin="round"/>
</g>
<defs>
<linearGradient id="paint0_linear_59_68" x1="10.0013" y1="1.66699" x2="10.0013" y2="16.667" gradientUnits="userSpaceOnUse">
<stop stop-color="#82B123"/>
<stop offset="1" stop-color="#76A908"/>
</linearGradient>
</defs>
</svg>
