<svg width="128" height="128" viewBox="0 0 128 128" fill="none" xmlns="http://www.w3.org/2000/svg">
<circle cx="64.0394" cy="64.0003" r="63.9603" fill="#2CBD85"/>
<path d="M33.0253 80.012C30.8293 81.6861 30.4062 84.8236 32.0803 87.0196C33.7545 89.2157 36.8919 89.6387 39.088 87.9646L33.0253 80.012ZM93.4488 44.6813C93.8179 41.9446 91.8985 39.427 89.1619 39.0579L44.5655 33.0441C41.8289 32.6751 39.3112 34.5944 38.9422 37.331C38.5732 40.0677 40.4925 42.5854 43.2291 42.9544L82.8703 48.3L77.5247 87.9412C77.1556 90.6779 79.075 93.1955 81.8116 93.5646C84.5483 93.9336 87.0659 92.0143 87.435 89.2776L93.4488 44.6813ZM39.088 87.9646L91.525 47.9894L85.4624 40.0368L33.0253 80.012L39.088 87.9646Z" fill="white"/>
</svg>
