<svg width="20" height="20" viewBox="0 0 20 20" fill="none" xmlns="http://www.w3.org/2000/svg">
<g id="lucide/laptop">
<path id="Vector" d="M16.6669 13.3337V5.83366C16.6669 5.39163 16.4913 4.96771 16.1787 4.65515C15.8662 4.34259 15.4422 4.16699 15.0002 4.16699H5.00022C4.55819 4.16699 4.13427 4.34259 3.82171 4.65515C3.50915 4.96771 3.33355 5.39163 3.33355 5.83366V13.3337M16.6669 13.3337H3.33355M16.6669 13.3337L17.7336 15.4587C17.7978 15.5861 17.8282 15.728 17.8219 15.8706C17.8156 16.0132 17.7727 16.1519 17.6974 16.2731C17.6221 16.3944 17.5169 16.4944 17.3919 16.5633C17.2669 16.6323 17.1263 16.668 16.9836 16.667H3.01689C2.87413 16.668 2.73351 16.6323 2.60851 16.5633C2.48351 16.4944 2.37832 16.3944 2.30303 16.2731C2.22775 16.1519 2.18488 16.0132 2.17855 15.8706C2.17222 15.728 2.20264 15.5861 2.26689 15.4587L3.33355 13.3337" stroke="url(#paint0_linear_59_72)" stroke-width="1.5" stroke-linecap="round" stroke-linejoin="round"/>
</g>
<defs>
<linearGradient id="paint0_linear_59_72" x1="10.0002" y1="4.16699" x2="10.0002" y2="16.667" gradientUnits="userSpaceOnUse">
<stop stop-color="#2CBD85"/>
<stop offset="1" stop-color="#23AD7E"/>
</linearGradient>
</defs>
</svg>
