<svg width="76" height="98" viewBox="0 0 76 98" fill="none" xmlns="http://www.w3.org/2000/svg">
<g id="Group">
<g id="Group_2">
<g id="Group_3">
<path id="Vector" d="M34.7538 1.1324C34.8497 3.14539 34.8284 5.17307 34.6899 7.17137C34.6686 7.42116 34.6579 7.67095 34.626 7.90604C34.6153 8.02359 34.6047 8.14114 34.594 8.25869C34.5833 8.43501 34.626 7.97952 34.594 8.244C34.5833 8.31747 34.5833 8.40562 34.5727 8.47909C34.5194 8.97866 34.4555 9.47823 34.3916 9.97781C34.253 10.977 34.0719 11.9761 33.8588 12.9459C33.7522 13.4014 33.6457 13.8569 33.5285 14.3124C33.4645 14.5328 33.4112 14.7532 33.3366 14.9736C33.326 15.0176 33.2834 15.0911 33.2834 15.1499C33.2834 15.003 33.3473 14.9589 33.3047 15.0617C33.2621 15.1793 33.2301 15.2968 33.1875 15.4144C32.9317 16.1931 32.6227 16.9425 32.2818 17.6478C32.2072 17.8094 32.1219 17.971 32.0367 18.1326C31.9941 18.2208 31.9408 18.309 31.8981 18.3971C31.8768 18.4265 31.8555 18.4706 31.8449 18.5C31.9514 18.2355 31.8875 18.4265 31.8555 18.4853C31.6637 18.8232 31.4507 19.1612 31.2375 19.4844C31.0244 19.793 30.8113 20.0869 30.5769 20.3807C30.4703 20.513 30.3532 20.6452 30.2359 20.7774C30.1827 20.8362 30.1294 20.895 30.0761 20.9538C29.9909 21.0419 30.2359 20.7774 30.1081 20.9244C30.0654 20.9685 30.0335 20.9979 29.9908 21.0419C29.7138 21.3211 29.4261 21.5856 29.1277 21.8207C28.8294 22.0558 28.5204 22.2321 28.2114 22.4525C28.2221 22.4378 28.3925 22.3497 28.2753 22.4084C28.2327 22.4378 28.1901 22.4525 28.1475 22.4819C28.0622 22.526 27.977 22.57 27.8811 22.6141C27.7212 22.6876 27.5614 22.7611 27.3909 22.8198C27.0606 22.9521 26.7196 23.0402 26.3787 23.099C26.1975 23.1284 25.9844 23.3929 25.8992 23.5986C25.8139 23.819 25.782 24.0541 25.8033 24.3039C25.8565 24.8328 26.1869 25.2589 26.5918 25.2589C27.3696 25.2442 28.1474 25.2442 28.9253 25.3177C29.1064 25.3324 29.2769 25.3618 29.4581 25.3912C29.4687 25.3912 29.6605 25.4352 29.5327 25.4059C29.3942 25.3765 29.5859 25.4206 29.6072 25.4206C29.7031 25.4353 29.799 25.4647 29.8949 25.494C30.2785 25.5969 30.6515 25.7291 31.0138 25.8908C31.0777 25.9201 31.1523 25.9642 31.2162 25.9936C31.2482 26.0083 31.2908 26.0377 31.3228 26.0524C31.3867 26.0818 31.4506 26.1699 31.2802 26.023C31.408 26.1405 31.5679 26.1993 31.7064 26.3022C31.9728 26.4932 32.2285 26.6989 32.4629 26.934C32.5268 26.9928 32.5908 27.0515 32.6547 27.125C32.676 27.1544 32.708 27.1838 32.7293 27.1985C32.8359 27.3013 32.6867 27.1544 32.676 27.1397C32.7826 27.2866 32.9211 27.4189 33.0383 27.5511C33.2727 27.845 33.4965 28.1388 33.7096 28.4621C33.8055 28.609 33.9014 28.756 33.9866 28.9029C34.0292 28.9764 34.0719 29.0498 34.1252 29.138C34.1891 29.2555 34.0079 28.9176 34.1038 29.0939C34.1358 29.1527 34.1571 29.1968 34.1891 29.2555C34.3702 29.5935 34.5301 29.9461 34.6899 30.2988C34.8497 30.6661 34.9989 31.0481 35.1374 31.4302C35.2014 31.6212 35.2653 31.8122 35.3292 32.0032C35.3399 32.0473 35.3505 32.0914 35.3718 32.1208C35.2866 31.8416 35.3399 32.0032 35.3612 32.0767C35.3931 32.1942 35.4251 32.2971 35.4571 32.4146C35.7022 33.2962 35.8833 34.1925 36.0218 35.1035C36.0644 35.368 36.0964 35.6178 36.1284 35.8823C36.139 35.9851 36.1497 36.1026 36.171 36.2055C36.1816 36.2937 36.1923 36.3671 36.1923 36.4553C36.1923 36.4112 36.1817 36.3671 36.1817 36.3231C36.1817 36.3818 36.1923 36.4259 36.1923 36.4847C36.2349 37.0136 36.2776 37.5279 36.2989 38.0569C36.4161 40.4813 36.3095 42.9204 36.1923 45.3301C36.171 45.8738 36.512 46.3439 36.8849 46.4174C37.2792 46.4909 37.6414 46.1529 37.7586 45.624C38.6004 41.9359 38.707 38.0422 39.3357 34.2954C39.4742 33.4578 39.634 32.6203 39.8471 31.7975C39.8897 31.6212 39.943 31.4448 39.9857 31.2832C40.007 31.1951 40.0496 31.1069 40.0709 31.0041C40.0709 31.0187 39.9963 31.2538 40.0496 31.0922C40.0602 31.0481 40.0816 30.9894 40.0922 30.9453C40.2094 30.5926 40.3266 30.2547 40.4545 29.9167C40.7102 29.2408 41.0086 28.5943 41.3389 27.9919C41.3602 27.9625 41.3815 27.9184 41.3922 27.889C41.2856 28.1094 41.3176 28.0213 41.3495 27.9625C41.3922 27.889 41.4348 27.8156 41.4774 27.7421C41.5627 27.5952 41.6585 27.4482 41.7544 27.3013C41.9356 27.0221 42.1274 26.7577 42.3192 26.5226C42.4364 26.3756 42.5429 26.2434 42.6708 26.1112C42.6921 26.0818 42.7134 26.0671 42.7454 26.0377C42.5536 26.2434 42.6921 26.0965 42.7241 26.0524C42.788 25.9936 42.8413 25.9348 42.9052 25.8761C43.1397 25.6557 43.3847 25.45 43.6405 25.2736C43.7044 25.2296 43.779 25.1855 43.8429 25.1414C43.8749 25.1267 43.8962 25.112 43.9282 25.0973C44.0774 25.0091 43.7683 25.1855 43.9068 25.112C44.0454 25.0385 44.1839 24.9651 44.3331 24.9063C44.4822 24.8475 44.6208 24.7887 44.7699 24.7447C44.8339 24.73 44.9085 24.7006 44.9724 24.6859C45.0363 24.6712 45.3347 24.6124 45.0576 24.6565C45.2707 24.6124 45.4732 24.5683 45.6224 24.3333C45.7396 24.1569 45.8142 23.9512 45.8462 23.7014C45.8994 23.2019 45.665 22.5994 45.2707 22.4966C44.9617 22.4084 44.6527 22.3056 44.3437 22.1733C44.2052 22.1145 44.0773 22.0411 43.9388 21.9823C43.8642 21.9382 43.7897 21.8941 43.7151 21.8648C43.9601 21.997 43.6831 21.8354 43.6191 21.806C43.0544 21.4386 42.511 20.9978 42.0102 20.4836C41.9889 20.4542 41.9569 20.4248 41.9356 20.4101C41.829 20.2926 41.9782 20.4542 41.9889 20.4689C41.9356 20.3954 41.861 20.3366 41.7971 20.2632C41.6692 20.1162 41.552 19.984 41.4348 19.8371C41.2003 19.5432 40.9659 19.2347 40.7528 18.8967C40.5397 18.5734 40.3373 18.2502 40.1348 17.9122C40.1135 17.8682 40.0922 17.8241 40.0602 17.78C40.0709 17.7947 40.1775 17.9857 40.0922 17.8388C40.0389 17.7506 39.9963 17.6625 39.943 17.5743C39.8471 17.398 39.7512 17.207 39.666 17.0306C39.3144 16.3107 39.0053 15.5466 38.7283 14.7679C38.6644 14.5769 38.6004 14.4005 38.5365 14.2095C38.5152 14.1654 38.5046 14.1067 38.4939 14.0626C38.4406 13.9009 38.5152 14.1213 38.5152 14.136C38.4832 14.0038 38.4406 13.8863 38.4086 13.7687C38.2914 13.372 38.1849 12.9606 38.0783 12.5492C37.6308 10.7419 37.3005 8.87581 37.0341 6.99506C36.8849 5.95183 36.7464 4.89391 36.6292 3.83598C36.5759 3.33641 36.5226 2.85153 36.4694 2.35195C36.4481 2.10217 36.4161 1.86707 36.3948 1.61729C36.3841 1.52913 36.3415 1.11771 36.3841 1.48504C36.3734 1.3528 36.3628 1.23526 36.3522 1.10302C36.3202 0.794456 36.2775 0.544661 36.1177 0.324261C35.9792 0.133246 35.7554 -0.0136802 35.553 0.00101319C35.3505 0.0157066 35.1267 0.10386 34.9882 0.324261C34.8497 0.559355 34.7219 0.853222 34.7538 1.1324C35.1268 4.99676 35.553 8.90519 36.4161 12.6226C37.2472 16.1637 38.6004 19.5432 40.7209 21.9088C41.9249 23.2459 43.3102 24.2745 44.8339 24.6712C44.9085 23.9512 44.9724 23.2312 45.047 22.5113C44.3864 22.6288 43.779 22.8639 43.161 23.2313C42.6175 23.5545 42.1167 23.9953 41.6479 24.5096C40.7315 25.494 39.975 26.7724 39.3783 28.1388C38.7496 29.5641 38.2914 31.1363 37.9824 32.7526C37.6095 34.6627 37.3964 36.6316 37.1833 38.5858C36.9488 40.7898 36.7037 42.9939 36.2136 45.1244C36.7357 45.2272 37.2579 45.3154 37.78 45.4183C37.9824 41.069 38.1636 36.5141 37.098 32.3265C36.2136 28.8294 34.4768 25.5528 31.9514 24.0835C30.2572 23.099 28.4032 23.0696 26.5918 23.099C26.6663 23.819 26.7303 24.539 26.8049 25.2589C29.49 24.7447 31.7809 22.3496 33.3473 19.411C35.0841 16.149 35.8407 12.0496 36.203 8.08238C36.4161 5.77551 36.4587 3.45395 36.3415 1.14709C36.3095 0.574044 35.9899 0.0156958 35.5423 0.0450826C35.1374 0.059776 34.7219 0.515275 34.7538 1.1324Z" fill="#EC88CE"/>
</g>
</g>
<g id="Group_4">
<g id="Group_5">
<path id="Vector_2" d="M5.16023 31.0038C5.34138 32.1058 5.50121 33.2225 5.63973 34.3392C5.71432 34.8828 5.77828 35.4265 5.83156 35.9701C5.86352 36.2493 5.89547 36.5138 5.91678 36.793C5.92744 36.9105 5.93807 37.0428 5.94873 37.1603C5.97004 37.366 5.94873 37.175 5.94873 37.1456C5.95938 37.2338 5.97006 37.3219 5.97006 37.4248C6.18317 39.6435 6.31101 41.8622 6.37494 44.0956C6.40691 45.0507 6.40695 45.991 6.36433 46.9461C6.35367 47.1665 6.34298 47.3869 6.32167 47.6073C6.31101 47.7249 6.30038 47.8424 6.28972 47.9599C6.27907 48.0775 6.31103 48.1656 6.28972 47.9306C6.30038 48.004 6.26839 48.0922 6.26839 48.1656C6.21511 48.6211 6.15118 49.0619 6.05528 49.5027C6.01266 49.7231 5.95939 49.9289 5.90611 50.1493C5.8848 50.2374 5.84221 50.3403 5.83156 50.4284C5.87418 50.208 5.87415 50.3109 5.85284 50.3697C5.83153 50.4431 5.81021 50.5019 5.78889 50.5754C5.63972 51.0015 5.46924 51.3982 5.26679 51.7802C5.21351 51.8684 5.1709 51.9712 5.11762 52.0594C5.12828 52.03 5.2242 51.8684 5.13895 52.0153C5.11764 52.0594 5.09631 52.1035 5.06435 52.1329C4.95779 52.3239 4.84056 52.5149 4.72335 52.7059C4.49959 53.0585 4.25454 53.4112 4.00947 53.7491C3.74308 54.1165 3.46601 54.4544 3.17831 54.7924C3.02914 54.9687 2.87998 55.145 2.72015 55.3066C2.68818 55.3507 2.64556 55.3948 2.61359 55.4242C2.59228 55.4389 2.46442 55.5858 2.56032 55.483C2.66687 55.3801 2.5177 55.527 2.50704 55.5417C2.46442 55.5858 2.41116 55.6299 2.36854 55.6887C1.72921 56.3352 1.06858 56.9376 0.397285 57.5106C0.109588 57.7604 -0.0822517 58.2894 0.0349581 58.7596C0.141513 59.2004 0.450541 59.5971 0.80217 59.5677C1.47346 59.5089 2.14476 59.4649 2.8267 59.5089C3.27423 59.5383 3.72176 59.5971 4.15863 59.6706C4.40371 59.7 4.63811 59.7293 4.88318 59.7587C4.95777 59.7587 5.03237 59.7734 5.10696 59.7881C5.12827 59.7881 5.13892 59.7881 5.16023 59.8028C5.24548 59.8175 5.22416 59.8175 5.09629 59.7881C5.1176 59.8028 5.17092 59.8028 5.19223 59.8028C5.36272 59.8469 5.53319 59.891 5.70367 59.9644C5.85285 60.0232 6.00203 60.0967 6.14055 60.1702C6.18318 60.1848 6.21515 60.2142 6.25778 60.2289C6.36433 60.2877 6.06595 60.1114 6.22578 60.2142C6.31102 60.273 6.38564 60.3171 6.47088 60.3758C6.76924 60.5816 7.04627 60.8167 7.31265 61.0811C7.34462 61.1105 7.37658 61.1546 7.40854 61.184C7.52575 61.3015 7.37659 61.1546 7.36593 61.1399C7.3979 61.2134 7.51509 61.3015 7.55771 61.3603C7.69623 61.5219 7.82411 61.6836 7.95198 61.8452C8.19705 62.1684 8.44214 62.5211 8.65525 62.8737C8.7618 63.05 8.86835 63.2264 8.96425 63.4027C8.85769 63.197 9.08146 63.6084 8.96425 63.4027C8.98556 63.4468 9.00688 63.4762 9.02819 63.5202C9.09212 63.6378 9.15602 63.7553 9.2093 63.8729C9.41175 64.2696 9.60354 64.6663 9.78468 65.0777C10.1789 65.974 10.5412 66.9144 10.8716 67.8548C11.0527 68.369 11.2338 68.898 11.4043 69.4123C11.447 69.5298 11.4789 69.6474 11.5216 69.7649C11.5429 69.8237 11.5642 69.8972 11.5855 69.9559C11.6388 70.147 11.5855 69.9706 11.5748 69.9265C11.6707 70.2204 11.7453 70.5143 11.8305 70.8081C12.5232 73.2179 13.0559 75.7011 13.4289 78.243C13.5035 78.7867 13.9403 79.0952 14.3026 79.0364C14.7288 78.963 14.9526 78.5075 14.9952 77.9491C15.3682 73.5264 14.5583 69.1331 14.7501 64.6957C14.7608 64.3431 14.7928 63.9904 14.8141 63.6525C14.8247 63.5643 14.8354 63.4761 14.8354 63.388C14.8461 63.2411 14.8034 63.6966 14.8247 63.4762C14.8247 63.4321 14.8354 63.4027 14.8354 63.3586C14.8567 63.1676 14.878 62.9766 14.8993 62.7856C14.9952 62.0362 15.1231 61.2868 15.2722 60.5669C15.3575 60.1848 15.4427 59.8028 15.5386 59.4208C15.5812 59.2445 15.6239 59.0828 15.6772 58.9212C15.6985 58.8331 15.7304 58.7449 15.7517 58.6567C15.805 58.4951 15.7304 58.7302 15.7198 58.7449C15.7411 58.6861 15.7517 58.6273 15.7731 58.5686C15.9968 57.878 16.2525 57.2021 16.5616 56.5703C16.6361 56.4086 16.7214 56.247 16.8067 56.0854C16.8173 56.056 16.9132 55.8944 16.8173 56.056C16.732 56.2176 16.828 56.0413 16.8493 56.0119C16.8919 55.9384 16.9345 55.865 16.9878 55.7915C17.1689 55.4976 17.3714 55.2185 17.5845 54.9687C17.6378 54.8952 17.7017 54.8364 17.755 54.7777C17.8296 54.6895 17.6058 54.9246 17.691 54.8511C17.723 54.8217 17.755 54.7924 17.7869 54.7483C17.9041 54.6454 18.0107 54.5426 18.1386 54.4397C18.2558 54.3516 18.373 54.2634 18.4902 54.1899C18.5115 54.1752 18.6394 54.1018 18.5009 54.1752C18.373 54.2487 18.4796 54.1899 18.5115 54.1752C18.5861 54.1312 18.6607 54.1018 18.7353 54.0724C19.0549 53.9255 19.3426 53.4993 19.3213 53.0145C19.3 52.5149 19.0869 52.1182 18.7353 51.9565C17.3714 51.3247 15.9436 51.0602 14.569 50.4578C14.4092 50.3843 14.2494 50.3109 14.0895 50.2227C14.0576 50.208 14.0255 50.1933 13.9936 50.1786C13.9723 50.164 13.8338 50.0611 13.951 50.1493C14.0682 50.2374 13.9297 50.1346 13.9084 50.1199C13.8657 50.0905 13.8125 50.0611 13.7699 50.0317C13.4609 49.8407 13.1731 49.6056 12.8961 49.3411C12.8535 49.297 12.8108 49.253 12.7682 49.2236C12.6723 49.1354 12.7896 49.2676 12.8109 49.2676C12.7789 49.2823 12.6403 49.0766 12.6084 49.0326C12.4699 48.8562 12.3314 48.6799 12.2035 48.4889C12.0969 48.3273 11.9904 48.151 11.8838 47.9746C11.8305 47.8865 11.7773 47.7983 11.724 47.7102C11.8625 47.9306 11.7773 47.7983 11.7453 47.7395C11.7134 47.6808 11.6814 47.6073 11.6388 47.5485C11.2552 46.8286 10.9355 46.0645 10.6478 45.2711C10.5732 45.0653 10.5093 44.8743 10.4453 44.6686C10.4134 44.5805 10.3814 44.4923 10.3601 44.3895C10.3388 44.3454 10.3282 44.2866 10.3068 44.2425C10.2429 44.0368 10.3708 44.4482 10.3068 44.2572C10.179 43.8311 10.0617 43.3903 9.94452 42.9642C9.46502 41.1422 9.09209 39.2615 8.67653 37.4101C8.10114 34.9122 7.42985 32.4584 6.55611 30.1369C6.36431 29.6226 5.81025 29.4316 5.45862 29.7401C5.07502 30.0781 4.96845 30.6952 5.1709 31.2536C5.38401 31.8119 5.58648 32.385 5.77828 32.958C5.86352 33.2225 5.95941 33.487 6.034 33.7514C6.02335 33.7221 5.97006 33.531 6.02333 33.7221C6.04465 33.7808 6.06597 33.8543 6.08728 33.9131C6.1299 34.06 6.17249 34.2069 6.21511 34.3392C6.51346 35.3677 6.77986 36.4109 7.02494 37.4689C7.47246 39.3643 7.85608 41.2891 8.32492 43.1699C8.77245 44.9625 9.31589 46.7404 10.0937 48.3126C10.5093 49.1501 10.9781 50.0023 11.5535 50.6488C12.1715 51.3688 12.8535 51.8831 13.61 52.2798C15.1231 53.0879 16.764 53.323 18.2984 54.0283C18.2984 53.323 18.2984 52.6177 18.2984 51.8978C15.9755 52.9263 14.6436 56.1148 13.9084 59.1122C13.5248 60.655 13.2904 62.2713 13.1731 63.8876C13.024 65.974 13.1305 68.0899 13.2584 70.1763C13.4075 72.7477 13.5887 75.319 13.3756 77.8904C13.8977 77.7875 14.4198 77.6994 14.942 77.5965C14.601 75.2896 14.1215 73.0122 13.5248 70.8081C12.9174 68.5894 12.2035 66.4001 11.3404 64.3431C10.6052 62.6092 9.72078 60.9195 8.59131 59.6412C7.97329 58.9506 7.33393 58.3922 6.58805 57.9955C5.92742 57.6282 5.23483 57.5253 4.53157 57.4372C4.02011 57.3784 3.51933 57.2902 3.00787 57.2462C2.25133 57.1874 1.50543 57.2315 0.748893 57.2902C0.887414 57.9808 1.01526 58.6567 1.15378 59.3473C2.41112 58.2747 3.63651 57.0992 4.73402 55.7034C5.82087 54.3075 6.83317 52.7059 7.3766 50.7811C7.89871 48.9297 7.98395 46.8579 7.95198 44.8743C7.92001 42.6262 7.79212 40.3782 7.60032 38.1595C7.37655 35.544 7.05689 32.9286 6.64133 30.3573C6.54543 29.7989 6.05531 29.4169 5.66106 29.5932C5.28812 29.843 5.05368 30.4014 5.16023 31.0038Z" fill="#EC88CE"/>
</g>
</g>
<g id="Group_6">
<g id="Group_7">
<path id="Vector_3" d="M47.0787 60.5965C47.2278 61.4046 47.3451 62.2128 47.4303 63.0503C47.4197 62.9475 47.409 62.8593 47.3983 62.7564C47.5582 64.3874 47.5795 66.0624 47.4197 67.6934C47.4303 67.5906 47.4409 67.5024 47.4516 67.3995C47.3237 68.7219 47.0787 70.015 46.7057 71.2345C46.7377 71.1464 46.759 71.0582 46.791 70.97C46.6099 71.5578 46.4074 72.1308 46.1623 72.6745C46.0451 72.9536 45.9066 73.2328 45.7681 73.4973C45.7041 73.6148 45.6402 73.7324 45.5763 73.8499C45.7468 73.5414 45.6082 73.7912 45.5656 73.8646C45.523 73.9381 45.4804 74.0116 45.4377 74.0703C45.1394 74.5699 44.7984 75.0254 44.4468 75.4515C44.3616 75.5544 44.2657 75.6572 44.1804 75.7601C44.1271 75.8189 43.946 76.0099 44.1697 75.7748C44.1165 75.8189 44.0739 75.8776 44.0206 75.9364C43.8181 76.1421 43.605 76.3331 43.3919 76.5241C42.987 76.8621 42.5821 77.1559 42.1452 77.4057C42.2091 77.3617 42.2731 77.3323 42.337 77.2882C42.028 77.4645 41.719 77.6408 41.41 77.8318C41.1969 77.9641 40.9944 78.0816 40.8346 78.302C40.4723 78.7722 40.5362 79.5804 40.9092 79.9771C41.101 80.1828 41.3567 80.2416 41.5805 80.3297C41.9641 80.4913 42.3477 80.6824 42.7206 80.9028C42.6567 80.8587 42.5928 80.8293 42.5288 80.7852C43.5411 81.3876 44.5214 82.137 45.3951 83.048C45.4164 83.0774 45.4378 83.0921 45.4591 83.1215C45.2779 82.9304 45.3525 83.0186 45.3951 83.048C45.4484 83.1068 45.491 83.1508 45.5443 83.2096C45.6402 83.3125 45.7361 83.43 45.8213 83.5329C45.9812 83.7386 46.141 83.9443 46.2902 84.1794C46.3648 84.2822 46.4287 84.3998 46.5033 84.5173C46.5352 84.5761 46.5672 84.6349 46.5992 84.6936C46.6311 84.7524 46.6844 84.8553 46.5353 84.5908C46.5566 84.6349 46.5779 84.6643 46.5992 84.7084C46.727 84.9434 46.8549 85.1932 46.9615 85.4577C47.2385 86.0601 47.4623 86.7067 47.6754 87.3679C47.6434 87.2797 47.6221 87.1915 47.5902 87.1034C48.3573 89.6306 48.7089 92.3489 49.0499 95.0378C49.1352 95.7578 49.2311 96.4778 49.327 97.1977C49.3589 97.4475 49.5401 97.7414 49.6892 97.8589C49.8491 97.9765 50.0196 98.0205 50.2007 97.9912C50.595 97.9177 50.8827 97.4622 50.8933 96.9039C50.9253 95.6843 50.9573 94.4648 50.9892 93.2305C51.0212 92.055 51.0212 90.8649 51.1384 89.6894C51.1277 89.7923 51.1171 89.8804 51.1064 89.9833C51.213 88.9694 51.3728 87.9556 51.5646 86.9711C51.6605 86.4862 51.7671 86.0014 51.8736 85.5165C51.9695 85.1198 52.0548 84.7083 52.172 84.3116C52.14 84.3998 52.1187 84.4879 52.0867 84.5761C52.2359 84.1059 52.4277 83.6651 52.6515 83.2537C52.6835 83.1949 52.7154 83.1362 52.7474 83.0627C52.822 82.9304 52.6088 83.2978 52.726 83.0921C52.8006 82.9598 52.8752 82.8423 52.9498 82.71C53.0883 82.4749 53.2375 82.2545 53.3867 82.0341C53.7064 81.5787 54.0473 81.1379 54.399 80.7117C54.4842 80.6089 54.5694 80.5207 54.6547 80.4179C54.6973 80.3738 54.7399 80.3297 54.7826 80.2709C54.8039 80.2416 54.8252 80.2122 54.8571 80.1975C54.8252 80.2269 54.6973 80.3738 54.7932 80.2563C54.9637 80.0799 55.1449 79.9036 55.3153 79.7273C55.667 79.404 56.0292 79.0955 56.4235 78.8751C56.3596 78.9191 56.2957 78.9485 56.2317 78.9926C56.2637 78.9779 56.2956 78.9632 56.3276 78.9338C56.5194 78.831 56.7006 78.6841 56.8071 78.4343C56.8923 78.2139 56.9243 77.9788 56.903 77.729C56.8497 77.1853 56.5194 76.7739 56.1145 76.7739C55.9334 76.7739 55.7522 76.7592 55.5817 76.7298C55.6563 76.7445 55.7202 76.7592 55.7948 76.7739C55.4432 76.7005 55.0916 76.5682 54.7612 76.3772C54.8252 76.4213 54.8891 76.4507 54.9531 76.4948C54.7506 76.3772 54.5588 76.245 54.3776 76.0833C54.2817 76.0099 54.1965 75.9217 54.1006 75.8482C54.058 75.8042 54.0047 75.7601 53.9621 75.716C53.9408 75.7013 53.9194 75.6719 53.8981 75.6572C53.8875 75.6425 53.8768 75.6278 53.8662 75.6278C53.7916 75.5397 53.9727 75.7454 53.9621 75.7307C53.5998 75.3193 53.2588 74.8785 52.9391 74.3936C52.8646 74.2613 52.7793 74.1438 52.7048 74.0116C52.6728 73.9528 52.6302 73.8793 52.5982 73.8205C52.513 73.6736 52.6835 73.9675 52.6515 73.9087C52.6302 73.8646 52.6089 73.8352 52.5875 73.7912C52.4277 73.512 52.2892 73.2181 52.14 72.9243C51.8416 72.3071 51.5753 71.6606 51.3302 70.9994C51.0425 70.2354 50.7761 69.4419 50.5311 68.6485C50.563 68.7366 50.5843 68.8248 50.6163 68.913C49.9024 66.5767 49.3483 64.1376 48.8901 61.6691C48.7835 61.0961 48.6877 60.5377 48.5918 59.9647C48.4959 59.4063 48.0057 59.0243 47.6114 59.2006C47.2065 59.4357 46.9721 59.9941 47.0787 60.5965C47.3024 61.9336 47.5475 63.2707 47.8352 64.5931C48.1655 66.1359 48.5492 67.6787 48.986 69.1774C49.4549 70.7496 49.977 72.3071 50.6376 73.7471C51.2237 75.0401 51.9269 76.3037 52.79 77.2588C53.2055 77.7143 53.6424 78.1404 54.1326 78.4343C54.676 78.7575 55.2088 78.9632 55.8055 79.0367C55.9227 79.0514 56.0399 79.0514 56.1464 79.0514C56.0719 78.3314 56.0079 77.6114 55.9333 76.8915C55.0596 77.3617 54.303 78.0963 53.5785 78.9045C52.8539 79.7126 52.172 80.6236 51.5966 81.6374C51.3089 82.137 51.0425 82.6366 50.8294 83.2096C50.5843 83.8855 50.4245 84.6202 50.2647 85.3402C49.8811 87.0887 49.572 88.8666 49.4761 90.6886C49.4229 91.7171 49.4122 92.7603 49.3909 93.7889C49.3696 94.8468 49.3376 95.89 49.3163 96.9479C49.8384 96.8451 50.3606 96.7569 50.8827 96.6541C50.4991 93.7301 50.2114 90.762 49.5294 87.9409C49.1778 86.5156 48.7409 85.0904 48.1016 83.8561C47.7819 83.2243 47.4197 82.6366 47.0148 82.1076C46.5459 81.5199 46.0238 80.9909 45.491 80.5207C44.905 79.9918 44.287 79.5216 43.6476 79.1249C43.2854 78.8898 42.9124 78.6841 42.5288 78.493C42.2198 78.3461 41.9108 78.2286 41.6018 78.0963C41.6657 78.1404 41.7297 78.1698 41.7936 78.2139C41.8895 78.3461 41.9747 78.4637 42.0706 78.5959C42.1026 78.6841 42.1239 78.7722 42.1559 78.8604C42.1665 78.9632 42.1772 79.0514 42.1878 79.1542C42.1772 79.2571 42.1665 79.3453 42.1559 79.4481C42.1239 79.5363 42.1026 79.6244 42.0706 79.7126C42.0067 79.8448 41.9214 80.0065 41.8255 80.0652C41.8469 80.0505 41.8575 80.0359 41.8788 80.0212C41.9321 79.9771 41.9854 79.9477 42.0387 79.9036C42.1878 79.8008 42.3477 79.7126 42.5075 79.6244C42.4436 79.6685 42.3796 79.6979 42.3157 79.742C42.7526 79.4922 43.2001 79.2424 43.6263 78.9338C44.1165 78.5812 44.5746 78.1698 45.0115 77.7143C45.9385 76.7298 46.7377 75.5691 47.3664 74.2173C48.5811 71.6459 49.1139 68.5309 49.1245 65.4894C49.1245 63.6674 48.9434 61.8307 48.6237 60.0675C48.5171 59.5092 48.0483 59.1125 47.6434 59.3035C47.2172 59.4357 46.9614 59.9941 47.0787 60.5965Z" fill="#EC88CE"/>
</g>
</g>
<g id="Group_8">
<g id="Group_9">
<path id="Vector_4" d="M57.8763 21.6151C57.9615 22.1587 58.0361 22.7024 58.1001 23.246C58.132 23.5105 58.164 23.7897 58.196 24.0688C58.2066 24.157 58.2599 24.5684 58.2172 24.2452C58.2386 24.4068 58.2493 24.5684 58.2599 24.7154C58.3558 25.8321 58.4304 26.9634 58.473 28.0948C58.5583 30.3723 58.5476 32.6645 58.4304 34.9273C58.3984 35.4856 58.3664 36.044 58.3345 36.617C58.3132 36.8668 58.3025 37.1313 58.2812 37.3811C58.2705 37.4986 58.2599 37.6161 58.2492 37.7484C58.2492 37.8072 58.2386 37.8659 58.2386 37.91C58.2279 37.9982 58.2386 37.9541 58.2492 37.7778C58.2492 37.8219 58.2386 37.8659 58.2386 37.91C58.1427 38.8504 57.9935 39.7761 57.8124 40.6871C57.7165 41.1426 57.6099 41.5981 57.4927 42.0389C57.4288 42.2593 57.3755 42.4797 57.3115 42.7001C57.3009 42.7588 57.2796 42.8029 57.2689 42.8617C57.3329 42.5825 57.3009 42.7441 57.2796 42.8176C57.237 42.9352 57.205 43.0674 57.1624 43.1849C56.8747 44.0518 56.5444 44.8747 56.1501 45.6681C56.0435 45.8885 55.9264 46.1089 55.8092 46.3146C55.7772 46.3734 55.7132 46.4469 55.8411 46.2559C55.8091 46.3146 55.7665 46.3734 55.7345 46.4322C55.6706 46.535 55.6173 46.6379 55.5534 46.7407C55.3083 47.1375 55.0526 47.5048 54.7756 47.8721C54.637 48.0485 54.4985 48.2248 54.3493 48.4011C54.2748 48.4893 54.1895 48.5627 54.1256 48.6509C54.2641 48.4599 54.2108 48.5627 54.1576 48.6215C54.1149 48.6656 54.0723 48.7097 54.019 48.7537C53.71 49.0623 53.3797 49.3562 53.0387 49.606C52.7404 49.8264 52.5699 50.3994 52.6764 50.8549C52.719 51.0312 52.783 51.2075 52.8789 51.3398C52.9961 51.5161 53.2625 51.6924 53.4436 51.663C54.1575 51.5455 54.8715 51.4867 55.5854 51.5161C55.937 51.5308 56.278 51.5602 56.6296 51.6043C56.7148 51.619 56.8107 51.6337 56.896 51.6483C56.9599 51.663 57.2796 51.7218 57.0025 51.663C57.1837 51.7071 57.3648 51.7365 57.546 51.7806C58.2386 51.9422 58.9312 52.1773 59.6025 52.4712C59.9434 52.6181 60.2844 52.7797 60.6147 52.9707C60.6893 53.0148 60.7532 53.0442 60.8278 53.0883C60.8704 53.1177 60.9131 53.1324 60.9557 53.1618C60.7319 53.0442 60.8811 53.1177 60.9344 53.1471C61.1049 53.2499 61.2647 53.3528 61.4352 53.4556C62.0852 53.8817 62.7139 54.3519 63.3106 54.8809C63.6089 55.1454 63.8966 55.4098 64.1737 55.7037C64.2483 55.7772 64.3228 55.8507 64.3974 55.9241C64.4294 55.9682 64.472 55.9976 64.504 56.0417C64.3335 55.8653 64.4081 55.9388 64.4507 55.9829C64.6105 56.1592 64.7597 56.3208 64.9089 56.4972C65.4417 57.1143 65.9531 57.7902 66.4219 58.4955C66.667 58.8628 66.9014 59.2448 67.1359 59.6415C67.1785 59.7297 67.2317 59.8032 67.2744 59.8913C67.1039 59.6122 67.3063 59.9501 67.3383 60.0236C67.4449 60.2293 67.5514 60.435 67.658 60.6407C68.1055 61.537 68.5104 62.4774 68.8514 63.4471C68.9366 63.6969 69.0219 63.9467 69.0965 64.1818C69.1604 64.3875 69.0219 63.932 69.0858 64.1524C69.1071 64.2259 69.1284 64.314 69.1497 64.3875C69.1817 64.505 69.2137 64.6226 69.2456 64.7401C69.3948 65.2691 69.5227 65.8128 69.6292 66.3564C69.7464 66.9148 70.2046 67.3115 70.6095 67.1205C70.8013 67.0323 70.9931 66.8707 71.089 66.6209C71.1956 66.3417 71.2062 66.0772 71.1743 65.7687C71.1743 65.754 71.1423 65.4748 71.1636 65.6511C71.1849 65.8274 71.153 65.563 71.153 65.5483C71.1423 65.4454 71.1316 65.3426 71.121 65.2397C71.0997 65.0046 71.0784 64.7695 71.0677 64.5344C71.0464 64.1671 71.0251 63.7998 71.0144 63.4324C71.0038 62.8594 71.0144 62.2716 71.0038 61.6986C71.0038 60.9786 70.9718 60.2733 70.9185 59.5534C70.8759 59.0097 70.8227 58.4661 70.7694 57.9224C70.7374 57.5992 70.7055 57.2759 70.6735 56.938C70.6628 56.8792 70.6628 56.8204 70.6522 56.7616C70.6202 56.4825 70.6735 56.938 70.6522 56.7616C70.6415 56.6 70.6202 56.4531 70.6095 56.2915C70.5136 55.2482 70.4284 54.1903 70.4071 53.1324C70.3965 52.5887 70.3964 52.0598 70.4284 51.5161C70.439 51.2663 70.4497 51.0018 70.4817 50.752C70.439 51.0606 70.503 50.6051 70.503 50.5463C70.5243 50.3994 70.535 50.2672 70.5563 50.1202C70.6202 49.6647 70.7161 49.2239 70.8227 48.7978C70.8653 48.6068 70.9185 48.4158 70.9718 48.2248C70.9931 48.1366 71.0145 48.0485 71.0464 47.975C71.0571 47.9162 71.0784 47.8721 71.089 47.8134C71.1636 47.5783 71.0571 47.9309 71.089 47.8281C71.3448 47.0493 71.6325 46.2999 71.9734 45.5947C72.0693 45.4036 72.2078 45.1979 72.2931 44.9922C72.2824 45.0069 72.1759 45.1979 72.2611 45.051C72.2931 44.9922 72.3251 44.9482 72.357 44.8894C72.4103 44.8012 72.4636 44.7131 72.5169 44.6249C72.7406 44.2723 72.9751 43.9343 73.2308 43.6111C73.3587 43.4494 73.4972 43.2878 73.6357 43.1262C73.7422 43.0086 73.6037 43.1702 73.5931 43.1702C73.6357 43.1409 73.6677 43.0821 73.7103 43.0527C73.7849 42.9792 73.8595 42.9058 73.9234 42.8323C74.2111 42.5531 74.5094 42.318 74.8291 42.0976C75.1275 41.8919 75.2979 41.2895 75.1914 40.8487C75.0742 40.3638 74.7865 40.07 74.4242 40.0406C74.0512 40.0112 73.6783 39.9671 73.3054 39.9083C73.2201 39.8936 73.1349 39.8789 73.0496 39.8642C73.007 39.8642 72.9644 39.8349 72.9217 39.8349C73.1349 39.8202 72.9963 39.8496 72.9324 39.8349C72.7406 39.7908 72.5488 39.7614 72.3677 39.7173C71.6431 39.541 70.9292 39.3206 70.2366 39.0414C69.885 38.8945 69.544 38.7476 69.203 38.5712C69.0432 38.4831 68.8833 38.4096 68.7128 38.3214C68.6915 38.3067 68.4678 38.1892 68.4678 38.1892C68.4252 38.1598 68.3719 38.1304 68.3293 38.101C67.658 37.6896 67.0187 37.2194 66.4007 36.6758C66.0916 36.3966 65.7826 36.1174 65.4949 35.8089C65.463 35.7795 65.4416 35.7501 65.4097 35.7207C65.4416 35.7648 65.5908 35.897 65.4097 35.7207C65.3457 35.6472 65.2712 35.5738 65.2072 35.5003C65.058 35.3387 64.9195 35.1624 64.781 34.986C64.5146 34.6481 64.2483 34.2954 64.0032 33.9281C63.7474 33.5461 63.5237 33.1347 63.2786 32.7526C63.4278 32.9877 63.2467 32.6939 63.2147 32.6204C63.1614 32.5176 63.1081 32.4294 63.0549 32.3265C62.9376 32.1061 62.8311 31.8857 62.7245 31.6653C62.5114 31.2245 62.3196 30.769 62.1278 30.3135C61.7549 29.4025 61.4246 28.4622 61.1155 27.4924C61.1049 27.4483 61.0836 27.4043 61.0729 27.3602C61.0623 27.3161 61.041 27.272 61.0303 27.2279C61.0729 27.3749 61.0836 27.3896 61.0516 27.2867C61.009 27.1545 60.9664 27.0075 60.9238 26.8753C60.8492 26.6108 60.7746 26.3463 60.7 26.0819C60.5508 25.5382 60.4016 24.9798 60.2631 24.4362C59.9754 23.3048 59.709 22.1734 59.4426 21.042C59.3148 20.4984 58.8779 20.087 58.4624 20.278C58.0361 20.4396 57.7378 21.0273 57.8763 21.6151C58.8353 25.7439 59.8369 30.005 61.7016 33.5461C62.6499 35.3534 63.7901 36.9109 65.1327 38.1892C66.4007 39.394 67.8178 40.305 69.2776 40.9662C70.9399 41.7156 72.6767 42.127 74.4242 42.2593C74.2857 41.5687 74.1578 40.8928 74.0193 40.2022C71.6005 41.8625 69.917 45.1686 69.1817 48.7097C68.7342 50.8696 68.7555 53.1177 68.9366 55.3217C68.9899 55.9388 69.0432 56.5412 69.1071 57.1584C69.1178 57.3053 69.1391 57.4375 69.1497 57.5845C69.1604 57.6432 69.1604 57.702 69.1711 57.7608C69.203 58.04 69.1498 57.5845 69.1711 57.7755C69.203 58.0547 69.2243 58.3485 69.2563 58.6277C69.3309 59.4946 69.4055 60.3615 69.4161 61.2284C69.4268 61.8896 69.4161 62.5508 69.4268 63.212C69.4481 64.2553 69.5333 65.2985 69.6399 66.3417C70.1514 66.1507 70.6628 65.945 71.1849 65.754C70.3645 61.7574 68.6596 58.1428 66.4219 55.3952C64.1843 52.6328 61.4139 50.6198 58.473 49.7823C56.8321 49.3121 55.1272 49.1652 53.465 49.459C53.6035 50.1496 53.7313 50.8255 53.8698 51.5161C56.4911 49.5325 58.2599 45.962 59.1869 42.1123C59.6664 40.114 59.8795 38.0423 59.9967 35.9411C60.1352 33.6196 60.1779 31.298 60.1139 28.9764C60.0394 26.3169 59.8369 23.6574 59.4426 21.0567C59.3574 20.4984 58.8566 20.1163 58.4624 20.2927C58.0042 20.4543 57.7911 21.0126 57.8763 21.6151Z" fill="#EC88CE"/>
</g>
</g>
</g>
</svg>
