<svg width="128" height="128" viewBox="0 0 128 128" fill="none" xmlns="http://www.w3.org/2000/svg">
<circle cx="63.9603" cy="63.9603" r="63.9603" fill="#E9C2FF"/>
<path d="M32.9462 79.9719C30.7502 81.6461 30.3271 84.7835 32.0012 86.9796C33.6754 89.1756 36.8128 89.5987 39.0089 87.9246L32.9462 79.9719ZM93.3697 44.6413C93.7388 41.9046 91.8194 39.3869 89.0828 39.0179L44.4864 33.0041C41.7498 32.635 39.2321 34.5543 38.8631 37.291C38.4941 40.0277 40.4134 42.5453 43.15 42.9144L82.7912 48.26L77.4456 87.9012C77.0765 90.6378 78.9959 93.1555 81.7325 93.5245C84.4692 93.8936 86.9868 91.9743 87.3559 89.2376L93.3697 44.6413ZM35.9775 83.9482L39.0089 87.9246L91.4459 47.9494L88.4146 43.9731L85.3833 39.9967L32.9462 79.9719L35.9775 83.9482Z" fill="white"/>
</svg>
